<svg width="136" height="38" viewBox="0 0 136 38" fill="none" xmlns="http://www.w3.org/2000/svg">
<g filter="url(#filter0_i_113_34)">
<rect width="37.6157" height="37.6157" rx="11.7549" fill="url(#paint0_linear_113_34)"/>
</g>
<g filter="url(#filter1_dd_113_34)">
<circle cx="18.8079" cy="18.8079" r="11.7549" fill="url(#paint1_linear_113_34)"/>
</g>
<path fill-rule="evenodd" clip-rule="evenodd" d="M15.5753 15.0774C15.5753 14.2393 16.4739 13.708 17.2086 14.1118L23.9912 17.8428C24.7523 18.2613 24.7523 19.3551 23.9912 19.7735L17.2092 23.5045C16.4745 23.9083 15.5758 23.377 15.5758 22.5389V15.0774H15.5753Z" fill="url(#paint2_linear_113_34)"/>
<path d="M55.6472 10.6039V27.702H52.0322V10.6039H55.6472ZM62.1111 20.2884V27.702H58.5546V14.8784H61.9441V17.1409H62.0944C62.3783 16.3951 62.8542 15.8051 63.522 15.371C64.1899 14.9313 64.9998 14.7115 65.9515 14.7115C66.842 14.7115 67.6185 14.9063 68.2808 15.2959C68.9431 15.6855 69.4579 16.242 69.8253 16.9656C70.1926 17.6836 70.3763 18.5407 70.3763 19.537V27.702H66.8198V20.1715C66.8253 19.3867 66.625 18.7745 66.2187 18.3348C65.8124 17.8895 65.253 17.6669 64.5406 17.6669C64.0619 17.6669 63.6389 17.7698 63.2716 17.9758C62.9098 18.1817 62.626 18.4823 62.42 18.8774C62.2197 19.267 62.1167 19.7373 62.1111 20.2884ZM84.6755 14.8784L80.1922 27.702H76.1849L71.7016 14.8784H75.4585L78.1218 24.0536H78.2553L80.9102 14.8784H84.6755ZM86.4955 27.702V14.8784H90.052V27.702H86.4955ZM88.2821 13.2254C87.7533 13.2254 87.2997 13.0501 86.9212 12.6994C86.5483 12.3432 86.3619 11.9174 86.3619 11.4221C86.3619 10.9323 86.5483 10.5121 86.9212 10.1614C87.2997 9.80523 87.7533 9.62712 88.2821 9.62712C88.8108 9.62712 89.2617 9.80523 89.6346 10.1614C90.013 10.5121 90.2023 10.9323 90.2023 11.4221C90.2023 11.9174 90.013 12.3432 89.6346 12.6994C89.2617 13.0501 88.8108 13.2254 88.2821 13.2254ZM97.6263 27.9107C96.6523 27.9107 95.7701 27.6602 94.9798 27.1593C94.195 26.6528 93.5716 25.9098 93.1097 24.9302C92.6533 23.9451 92.4251 22.7373 92.4251 21.3069C92.4251 19.8375 92.6616 18.6158 93.1347 17.6418C93.6078 16.6623 94.2368 15.9304 95.0215 15.4461C95.8119 14.9563 96.6773 14.7115 97.618 14.7115C98.3359 14.7115 98.9343 14.8339 99.4129 15.0788C99.8971 15.3181 100.287 15.6187 100.582 15.9805C100.882 16.3367 101.11 16.6873 101.266 17.0324H101.375V10.6039H104.923V27.702H101.417V25.6482H101.266C101.099 26.0044 100.863 26.3578 100.557 26.7085C100.256 27.0536 99.8637 27.3402 99.3795 27.5684C98.9009 27.7966 98.3165 27.9107 97.6263 27.9107ZM98.7534 25.0805C99.3267 25.0805 99.8109 24.9246 100.206 24.613C100.607 24.2957 100.913 23.8532 101.124 23.2855C101.341 22.7178 101.45 22.0527 101.45 21.2902C101.45 20.5277 101.344 19.8654 101.133 19.3032C100.921 18.7411 100.615 18.3069 100.214 18.0008C99.8137 17.6947 99.3267 17.5416 98.7534 17.5416C98.169 17.5416 97.6764 17.7003 97.2757 18.0175C96.8749 18.3348 96.5716 18.7745 96.3657 19.3366C96.1597 19.8988 96.0568 20.5499 96.0568 21.2902C96.0568 22.036 96.1597 22.6956 96.3657 23.2688C96.5772 23.8365 96.8805 24.2818 97.2757 24.6046C97.6764 24.9219 98.169 25.0805 98.7534 25.0805Z" fill="#0F172A"/>
<path d="M113.691 27.9524C112.372 27.9524 111.237 27.6853 110.285 27.151C109.339 26.6111 108.61 25.8486 108.098 24.8634C107.586 23.8727 107.33 22.7011 107.33 21.3486C107.33 20.0295 107.586 18.8719 108.098 17.8756C108.61 16.8793 109.33 16.1029 110.26 15.5463C111.195 14.9897 112.291 14.7115 113.549 14.7115C114.395 14.7115 115.183 14.8478 115.912 15.1205C116.647 15.3877 117.287 15.7912 117.832 16.3311C118.383 16.871 118.812 17.55 119.118 18.3682C119.424 19.1808 119.577 20.1325 119.577 21.2234V22.2002H108.749V19.9962H116.229C116.229 19.4841 116.118 19.0305 115.895 18.6353C115.673 18.2402 115.364 17.9313 114.969 17.7086C114.579 17.4804 114.125 17.3663 113.608 17.3663C113.068 17.3663 112.589 17.4916 112.172 17.742C111.76 17.9869 111.437 18.3181 111.203 18.7355C110.97 19.1474 110.85 19.6066 110.844 20.113V22.2085C110.844 22.843 110.961 23.3913 111.195 23.8532C111.434 24.3152 111.771 24.6714 112.205 24.9219C112.639 25.1723 113.154 25.2976 113.75 25.2976C114.145 25.2976 114.507 25.2419 114.835 25.1306C115.163 25.0193 115.444 24.8523 115.678 24.6297C115.912 24.407 116.09 24.1343 116.213 23.8115L119.502 24.0286C119.335 24.8189 118.993 25.5091 118.475 26.099C117.963 26.6834 117.301 27.1398 116.488 27.4682C115.681 27.791 114.749 27.9524 113.691 27.9524ZM127.692 27.9524C126.395 27.9524 125.274 27.6769 124.327 27.1259C123.387 26.5693 122.66 25.7957 122.148 24.805C121.636 23.8087 121.38 22.6538 121.38 21.3403C121.38 20.0156 121.636 18.858 122.148 17.8672C122.66 16.871 123.387 16.0973 124.327 15.5463C125.274 14.9897 126.395 14.7115 127.692 14.7115C128.989 14.7115 130.107 14.9897 131.048 15.5463C131.994 16.0973 132.723 16.871 133.235 17.8672C133.747 18.858 134.003 20.0156 134.003 21.3403C134.003 22.6538 133.747 23.8087 133.235 24.805C132.723 25.7957 131.994 26.5693 131.048 27.1259C130.107 27.6769 128.989 27.9524 127.692 27.9524ZM127.709 25.1974C128.299 25.1974 128.791 25.0304 129.186 24.6964C129.581 24.3569 129.879 23.895 130.08 23.3106C130.286 22.7262 130.389 22.0611 130.389 21.3152C130.389 20.5694 130.286 19.9043 130.08 19.3199C129.879 18.7355 129.581 18.2735 129.186 17.934C128.791 17.5945 128.299 17.4248 127.709 17.4248C127.113 17.4248 126.612 17.5945 126.206 17.934C125.805 18.2735 125.502 18.7355 125.296 19.3199C125.095 19.9043 124.995 20.5694 124.995 21.3152C124.995 22.0611 125.095 22.7262 125.296 23.3106C125.502 23.895 125.805 24.3569 126.206 24.6964C126.612 25.0304 127.113 25.1974 127.709 25.1974Z" fill="url(#paint3_linear_113_34)"/>
<defs>
<filter id="filter0_i_113_34" x="0" y="0" width="37.6157" height="38.7912" filterUnits="userSpaceOnUse" color-interpolation-filters="sRGB">
<feFlood flood-opacity="0" result="BackgroundImageFix"/>
<feBlend mode="normal" in="SourceGraphic" in2="BackgroundImageFix" result="shape"/>
<feColorMatrix in="SourceAlpha" type="matrix" values="0 0 0 0 0 0 0 0 0 0 0 0 0 0 0 0 0 0 127 0" result="hardAlpha"/>
<feOffset dy="1.17549"/>
<feGaussianBlur stdDeviation="1.17549"/>
<feComposite in2="hardAlpha" operator="arithmetic" k2="-1" k3="1"/>
<feColorMatrix type="matrix" values="0 0 0 0 0 0 0 0 0 0 0 0 0 0 0 0 0 0 0.05 0"/>
<feBlend mode="normal" in2="shape" result="effect1_innerShadow_113_34"/>
</filter>
<filter id="filter1_dd_113_34" x="5.28974" y="5.87746" width="27.0363" height="27.0363" filterUnits="userSpaceOnUse" color-interpolation-filters="sRGB">
<feFlood flood-opacity="0" result="BackgroundImageFix"/>
<feColorMatrix in="SourceAlpha" type="matrix" values="0 0 0 0 0 0 0 0 0 0 0 0 0 0 0 0 0 0 127 0" result="hardAlpha"/>
<feMorphology radius="0.587745" operator="erode" in="SourceAlpha" result="effect1_dropShadow_113_34"/>
<feOffset dy="0.587745"/>
<feGaussianBlur stdDeviation="0.587745"/>
<feComposite in2="hardAlpha" operator="out"/>
<feColorMatrix type="matrix" values="0 0 0 0 0 0 0 0 0 0 0 0 0 0 0 0 0 0 0.1 0"/>
<feBlend mode="normal" in2="BackgroundImageFix" result="effect1_dropShadow_113_34"/>
<feColorMatrix in="SourceAlpha" type="matrix" values="0 0 0 0 0 0 0 0 0 0 0 0 0 0 0 0 0 0 127 0" result="hardAlpha"/>
<feOffset dy="0.587745"/>
<feGaussianBlur stdDeviation="0.881618"/>
<feComposite in2="hardAlpha" operator="out"/>
<feColorMatrix type="matrix" values="0 0 0 0 0 0 0 0 0 0 0 0 0 0 0 0 0 0 0.1 0"/>
<feBlend mode="normal" in2="effect1_dropShadow_113_34" result="effect2_dropShadow_113_34"/>
<feBlend mode="normal" in="SourceGraphic" in2="effect2_dropShadow_113_34" result="shape"/>
</filter>
<linearGradient id="paint0_linear_113_34" x1="0" y1="0" x2="37.6157" y2="37.6157" gradientUnits="userSpaceOnUse">
<stop stop-color="#FB923C"/>
<stop offset="1" stop-color="#F97316"/>
</linearGradient>
<linearGradient id="paint1_linear_113_34" x1="7.05298" y1="7.05295" x2="30.5628" y2="30.5628" gradientUnits="userSpaceOnUse">
<stop stop-color="#F8FAFC"/>
<stop offset="1" stop-color="#E2E8F0"/>
</linearGradient>
<linearGradient id="paint2_linear_113_34" x1="15.8691" y1="14.1059" x2="24.6853" y2="23.5098" gradientUnits="userSpaceOnUse">
<stop stop-color="#1E293B"/>
<stop offset="1" stop-color="#0F172A"/>
</linearGradient>
<linearGradient id="paint3_linear_113_34" x1="50.5461" y1="4.70197" x2="67.1874" y2="55.2201" gradientUnits="userSpaceOnUse">
<stop stop-color="#FB923C"/>
<stop offset="1" stop-color="#F97316"/>
</linearGradient>
</defs>
</svg>
